<svg width="164" height="33" viewBox="0 0 164 33" fill="none" xmlns="http://www.w3.org/2000/svg">
<mask id="mask0_238_2403" style="mask-type:luminance" maskUnits="userSpaceOnUse" x="0" y="0" width="164" height="33">
<path d="M163.931 0H0V32.015H163.931V0Z" fill="white"/>
</mask>
<g mask="url(#mask0_238_2403)">
<path d="M86.7018 32.0001C86.5596 31.9665 86.4367 31.8782 86.3599 31.7546C86.2832 31.6309 86.259 31.4821 86.2926 31.3407L93.6817 0.420982C93.7192 0.283466 93.8091 0.165853 93.9324 0.093062C94.0556 0.0202714 94.2025 -0.00197791 94.342 0.0310281C94.4814 0.0640342 94.6025 0.149702 94.6795 0.269882C94.7565 0.390062 94.7834 0.535311 94.7545 0.674856L87.3653 31.5935C87.3315 31.7348 87.2426 31.857 87.1182 31.9332C86.9938 32.0095 86.8441 32.0335 86.7018 32.0001Z" fill="#3C2DDA"/>
<path d="M2.45859 16.9104C2.41132 17.2514 2.23359 17.5612 1.96236 17.7754C1.73004 17.9937 1.42245 18.1153 1.10273 18.1153C0.783015 18.1153 0.475425 17.9937 0.243098 17.7754C0.145633 17.6575 0.0749687 17.5201 0.0359478 17.3725C-0.00307315 17.225 -0.00952744 17.0708 0.0170274 16.9205L1.24346 8.18548C1.2912 7.85498 1.45543 7.55205 1.7069 7.33063C1.93853 7.10226 2.25157 6.97412 2.57784 6.97412C2.90411 6.97412 3.21716 7.10226 3.44878 7.33063C3.55033 7.44834 3.6243 7.58699 3.66535 7.73658C3.7064 7.88616 3.7135 8.04294 3.68615 8.19559L2.45294 16.9205L2.45859 16.9104Z" fill="#3C2DDA"/>
<path d="M9.1539 16.9107C9.10663 17.2517 8.9289 17.5615 8.65768 17.7756C8.42535 17.9939 8.11776 18.1155 7.79804 18.1155C7.47833 18.1155 7.17074 17.9939 6.93841 17.7756C6.84095 17.6577 6.77028 17.5203 6.73126 17.3728C6.69224 17.2252 6.68578 17.071 6.71234 16.9208L7.94669 8.19134C7.99443 7.86084 8.15866 7.55791 8.41013 7.33648C8.64175 7.10812 8.9548 6.97998 9.28107 6.97998C9.60734 6.97998 9.92038 7.10812 10.152 7.33648C10.2536 7.4542 10.3275 7.59285 10.3686 7.74244C10.4096 7.89202 10.4167 8.0488 10.3894 8.20145L9.14825 16.9208L9.1539 16.9107Z" fill="#3C2DDA"/>
<path d="M5.67103 11.3196C5.82625 11.3148 5.9805 11.3455 6.12196 11.4092C6.26343 11.4728 6.38834 11.5678 6.48714 11.6869C6.66896 11.9507 6.74443 12.2727 6.69858 12.5892C6.65273 12.9056 6.48891 13.1934 6.23959 13.3955C5.99142 13.6183 5.66972 13.7429 5.33531 13.746H1.68201C1.52901 13.7503 1.37688 13.7217 1.23602 13.6622C1.09516 13.6027 0.968908 13.5136 0.865898 13.4011C0.673291 13.1378 0.590457 12.8108 0.634687 12.4882C0.678917 12.1657 0.846792 11.8725 1.10327 11.6701C1.35546 11.4429 1.68304 11.3162 2.02338 11.314H5.67103V11.3196Z" fill="#3C2DDA"/>
<path d="M17.5308 18.0434H11.8214C11.6677 18.049 11.5147 18.0204 11.3735 17.9598C11.2324 17.8992 11.1066 17.808 11.0053 17.693C10.9078 17.5751 10.8372 17.4377 10.7982 17.2901C10.7591 17.1426 10.7527 16.9884 10.7792 16.8381L11.9966 8.25133C12.0437 7.91961 12.2099 7.61599 12.4646 7.39648C12.7146 7.16453 13.0427 7.03356 13.3847 7.02915H19.093C19.2424 7.02405 19.3911 7.05239 19.5281 7.11209C19.6651 7.17178 19.7868 7.26129 19.8842 7.37401C19.9813 7.48762 20.0519 7.62115 20.091 7.76506C20.1301 7.90896 20.1367 8.05967 20.1103 8.2064C20.0639 8.53205 19.8971 8.82883 19.6423 9.03879C19.3984 9.24762 19.0882 9.36418 18.7663 9.36793H14.2788L13.9973 11.3562H17.9626C18.1123 11.3499 18.2614 11.3777 18.3985 11.4374C18.5357 11.4972 18.6572 11.5874 18.7539 11.7011C18.8496 11.8166 18.9194 11.9512 18.9584 12.0957C18.9974 12.2403 19.0047 12.3915 18.9799 12.5391C18.9337 12.8661 18.7645 13.1635 18.5063 13.3715C18.2634 13.5819 17.9526 13.6987 17.6303 13.7006H13.6673L13.3858 15.699H17.8654C18.0149 15.6939 18.1636 15.7223 18.3005 15.782C18.4375 15.8417 18.5592 15.9312 18.6567 16.0439C18.7538 16.1575 18.8244 16.291 18.8635 16.4349C18.9025 16.5788 18.9091 16.7296 18.8827 16.8763C18.8324 17.1965 18.6698 17.4886 18.4236 17.7012C18.1775 17.9137 17.8637 18.033 17.5376 18.0378" fill="#3C2DDA"/>
<path d="M28.3144 18.1143C28.1317 18.1204 27.9508 18.0766 27.7913 17.9877C27.6319 17.8987 27.5001 17.7681 27.4101 17.6099L25.2929 14.3905L22.2749 17.638C22.1474 17.7827 21.9913 17.8997 21.8162 17.9816C21.6412 18.0636 21.451 18.1088 21.2576 18.1143C21.1105 18.1177 20.9645 18.0885 20.8302 18.0289C20.6959 17.9692 20.5766 17.8806 20.481 17.7695C20.3855 17.6571 20.3158 17.5255 20.2768 17.3837C20.2377 17.2418 20.2303 17.0933 20.255 16.9483C20.2944 16.6732 20.4151 16.4159 20.602 16.2091L24.1287 12.5347L21.6758 8.9086C21.5364 8.68257 21.4834 8.41422 21.5266 8.15259C21.5714 7.82169 21.7381 7.51907 21.9946 7.30335C22.186 7.13027 22.4249 7.01758 22.6809 6.97958C22.9368 6.94158 23.1984 6.97999 23.4324 7.08992C23.5891 7.17426 23.7218 7.29679 23.8178 7.44602L25.9067 10.652L28.9214 7.40445C29.0295 7.27881 29.1618 7.176 29.3106 7.10211C29.4594 7.02822 29.6216 6.98475 29.7876 6.97428C29.9536 6.9638 30.1201 6.98654 30.2771 7.04113C30.4341 7.09573 30.5785 7.18107 30.7017 7.29212C30.8034 7.40556 30.878 7.54031 30.9201 7.68636C30.9622 7.83242 30.9706 7.98601 30.9447 8.13574C30.9088 8.39029 30.7975 8.62845 30.6248 8.81985L27.0868 12.5269L29.5612 16.1856C29.7073 16.3984 29.763 16.66 29.716 16.9135C29.6719 17.241 29.5116 17.5422 29.2639 17.7627C29.0117 17.9934 28.6809 18.1206 28.3381 18.1188" fill="#3C2DDA"/>
<path d="M39.49 18.1157C39.2596 18.1192 39.034 18.05 38.8457 17.918C38.6617 17.788 38.5262 17.6012 38.4602 17.3867L37.9425 15.5085H33.8642L32.8231 17.3653C32.6918 17.5899 32.5061 17.7784 32.2828 17.9135C32.05 18.0717 31.7683 18.1426 31.4878 18.1136C31.2073 18.0846 30.9462 17.9576 30.7512 17.7551C30.6568 17.6368 30.5888 17.4999 30.5518 17.3535C30.5148 17.2071 30.5095 17.0545 30.5364 16.9059C30.5672 16.7277 30.6308 16.5567 30.7241 16.4015L35.5563 7.8799C35.7011 7.62787 35.8984 7.40955 36.1351 7.2396C36.3974 7.04954 36.7148 6.9494 37.0394 6.95427H37.1829C37.483 6.94258 37.7763 7.04457 38.0036 7.2396C38.1935 7.41009 38.3311 7.63051 38.4003 7.87541L40.8238 16.3914C40.8754 16.5543 40.8904 16.7265 40.8679 16.8958C40.8187 17.2277 40.6516 17.5312 40.3968 17.7512C40.1419 17.9713 39.8163 18.0934 39.4787 18.0955M35.1584 13.1775H37.2801L36.5748 10.6366L35.1528 13.1775H35.1584Z" fill="#3C2DDA"/>
<path d="M50.5452 18.1147C50.243 18.1182 49.9496 18.0133 49.7189 17.8193C49.492 17.6305 49.3428 17.3655 49.2996 17.0745L48.3354 11.587L45.8113 17.0801C45.6753 17.3815 45.4577 17.6393 45.1828 17.8249C44.9358 18.0102 44.6355 18.1119 44.326 18.1149C44.0165 18.118 43.7142 18.0222 43.4635 17.8418C43.241 17.6526 43.0895 17.394 43.034 17.1082L41.4515 8.57089C41.4262 8.43338 41.4224 8.29281 41.4402 8.15414C41.4743 7.82347 41.6364 7.51893 41.8923 7.3049C42.1127 7.10017 42.3997 6.98086 42.7012 6.9687C43.0026 6.95654 43.2984 7.05232 43.5348 7.23862C43.7146 7.40705 43.8314 7.63128 43.8659 7.87443L44.8584 13.9045L47.5611 7.907C47.6833 7.62814 47.8844 7.39051 48.1398 7.22289C48.3728 7.05424 48.6536 6.96338 48.9418 6.96338C49.23 6.96338 49.5108 7.05424 49.7438 7.22289C49.9582 7.39535 50.0998 7.64147 50.1405 7.91262L51.1488 13.9034L53.8436 7.87892C53.9554 7.62331 54.1342 7.40219 54.3613 7.23862C54.5935 7.05205 54.8863 6.95627 55.1846 6.96931C55.483 6.98234 55.7662 7.10329 55.9811 7.30939C56.0831 7.42972 56.1547 7.57248 56.1901 7.72584C56.2255 7.8792 56.2236 8.03873 56.1845 8.19121C56.1628 8.31614 56.1248 8.43774 56.0715 8.55292L52.0655 17.0903C51.9215 17.3929 51.7011 17.6533 51.4257 17.8463C51.1649 18.0251 50.8554 18.1208 50.5384 18.1204" fill="#3C2DDA"/>
<path d="M63.1914 18.1157C62.961 18.1192 62.7354 18.05 62.5471 17.918C62.3631 17.788 62.2276 17.6012 62.1616 17.3867L61.6439 15.5085H57.5746L56.5336 17.3653C56.4023 17.5899 56.2165 17.7784 55.9933 17.9135C55.7605 18.0717 55.4787 18.1426 55.1982 18.1136C54.9177 18.0846 54.6567 17.9576 54.4617 17.7551C54.3673 17.6368 54.2993 17.4999 54.2623 17.3535C54.2252 17.2071 54.22 17.0545 54.2469 16.9059C54.2776 16.7277 54.3412 16.5567 54.4345 16.4015L59.2668 7.8799C59.4115 7.62785 59.6088 7.40952 59.8455 7.2396C60.1086 7.05106 60.4255 6.95108 60.7498 6.95427H60.8934C61.1934 6.94258 61.4867 7.04457 61.714 7.2396C61.904 7.41009 62.0415 7.63051 62.1107 7.87541L64.5297 16.3914C64.5813 16.5543 64.5963 16.7265 64.5738 16.8958C64.5246 17.2277 64.3575 17.5312 64.1027 17.7512C63.8479 17.9713 63.5222 18.0934 63.1846 18.0955M58.8644 13.1775H60.9861L60.2807 10.6366L58.8553 13.1809L58.8644 13.1775Z" fill="#3C2DDA"/>
<path d="M73.116 18.1149C72.9333 18.1209 72.7524 18.0771 72.593 17.9882C72.4336 17.8993 72.3017 17.7686 72.2118 17.6105L68.624 11.9747L71.4838 11.9478L74.3493 16.1805C74.4228 16.2853 74.4743 16.4038 74.5007 16.5289C74.5271 16.6539 74.5279 16.783 74.503 16.9084C74.4587 17.2343 74.2983 17.5337 74.0508 17.752C73.7972 17.984 73.4642 18.1114 73.1194 18.1081" fill="#3C2DDA"/>
<path d="M66.5641 18.1145C66.4105 18.119 66.2579 18.0899 66.1169 18.0294C65.9759 17.9688 65.8499 17.8782 65.748 17.7641C65.6505 17.6462 65.5799 17.5088 65.5408 17.3612C65.5018 17.2137 65.4954 17.0595 65.5219 16.9092L66.745 8.25054C66.7921 7.91882 66.9583 7.6152 67.2129 7.39569C67.4629 7.16374 67.791 7.03277 68.133 7.02836H71.4506C72.5747 6.9356 73.6931 7.26374 74.5862 7.94837C74.9271 8.26449 75.1813 8.66172 75.3249 9.10256C75.4685 9.5434 75.4967 10.0133 75.4068 10.468C75.2712 11.5752 74.704 12.5854 73.8271 13.2817C72.9503 13.9779 71.8336 14.3047 70.717 14.1919H68.3433L67.9578 16.9025C67.9104 17.2421 67.7351 17.5513 67.4672 17.7674C67.2172 17.9865 66.8963 18.1089 66.563 18.1123M68.679 11.8362H70.6797C71.263 11.8651 71.8429 11.7325 72.3549 11.4532C72.5168 11.3635 72.6548 11.2367 72.7574 11.0833C72.86 10.9299 72.9243 10.7544 72.9449 10.5714C72.9831 10.4202 72.9786 10.2614 72.932 10.1126C72.8853 9.96378 72.7983 9.83061 72.6804 9.72773C72.157 9.43328 71.5528 9.31247 70.9555 9.38286H69.0271L68.6801 11.8306L68.679 11.8362Z" fill="#3C2DDA"/>
<path d="M82.4174 18.0434H76.7092C76.5549 18.0495 76.4012 18.0206 76.2598 17.9589C76.1184 17.8972 75.993 17.8044 75.893 17.6873C75.7942 17.5702 75.7227 17.4329 75.6836 17.2851C75.6446 17.1373 75.6389 16.9827 75.667 16.8325L76.8844 8.24572C76.9331 7.91556 77.0972 7.61295 77.3478 7.39086C77.5983 7.15609 77.9293 7.02477 78.2736 7.02353H83.983C84.1324 7.01843 84.2812 7.04678 84.4181 7.10647C84.5551 7.16616 84.6768 7.25568 84.7742 7.3684C84.8713 7.482 84.9419 7.61554 84.981 7.75944C85.0201 7.90335 85.0267 8.05406 85.0003 8.20079C84.9539 8.52644 84.7871 8.82321 84.5323 9.03318C84.2885 9.242 83.9782 9.35857 83.6563 9.36231H79.1733L78.8919 11.3506H82.8594C83.009 11.3443 83.1581 11.3721 83.2953 11.4318C83.4324 11.4916 83.554 11.5818 83.6506 11.6955C83.7464 11.811 83.8162 11.9456 83.8552 12.0901C83.8942 12.2347 83.9015 12.3859 83.8767 12.5335C83.8305 12.8605 83.6612 13.1579 83.4031 13.3659C83.1603 13.5764 82.8494 13.6932 82.5271 13.695H78.5595L78.2781 15.6934H82.7588C82.9083 15.6883 83.057 15.7167 83.1939 15.7764C83.3309 15.836 83.4526 15.9256 83.5501 16.0383C83.6472 16.1519 83.7178 16.2854 83.7569 16.4293C83.7959 16.5732 83.8025 16.7239 83.7761 16.8707C83.7258 17.1908 83.5631 17.483 83.317 17.6956C83.0709 17.9081 82.757 18.0273 82.431 18.0322" fill="#3C2DDA"/>
<path d="M98.6074 25.1583H100.685V25.5751H98.6074V25.1583ZM99.2246 28.7069V24.8944C99.222 24.8027 99.2277 24.7109 99.2416 24.6203C99.2528 24.5326 99.2732 24.4464 99.3026 24.363C99.3341 24.279 99.383 24.2025 99.4461 24.1383C99.5133 24.0654 99.5939 24.006 99.6835 23.9631C99.7695 23.9262 99.8605 23.9023 99.9537 23.8923C100.045 23.8814 100.137 23.8758 100.229 23.8755H100.682V24.281H100.255C100.181 24.2742 100.105 24.2828 100.034 24.3064C99.963 24.33 99.8974 24.368 99.8418 24.4181C99.7426 24.5354 99.6931 24.6864 99.7039 24.8393V28.7058H99.2189L99.2246 28.7069Z" fill="#535983"/>
<path d="M102.576 28.8038C102.258 28.8113 101.944 28.7275 101.672 28.5622C101.42 28.4004 101.219 28.1705 101.093 27.8995C100.954 27.5932 100.885 27.2603 100.89 26.9244C100.882 26.5864 100.951 26.251 101.093 25.9438C101.221 25.6741 101.424 25.4462 101.678 25.2866C101.948 25.1237 102.26 25.0418 102.576 25.0507C102.898 25.0438 103.215 25.1275 103.491 25.2922C103.745 25.4514 103.947 25.682 104.069 25.955C104.207 26.2595 104.275 26.5906 104.268 26.9244C104.276 27.2624 104.207 27.5978 104.065 27.9051C103.938 28.174 103.738 28.4019 103.486 28.5622C103.214 28.7249 102.9 28.8068 102.582 28.7981L102.576 28.8038ZM102.576 28.3387C102.745 28.3509 102.915 28.3212 103.07 28.2524C103.225 28.1836 103.36 28.0778 103.464 27.9444C103.654 27.6376 103.755 27.284 103.755 26.9233C103.755 26.5626 103.654 26.209 103.464 25.9022C103.357 25.7727 103.221 25.6703 103.067 25.6037C102.912 25.5371 102.744 25.5081 102.576 25.5191C102.342 25.5106 102.112 25.5737 101.915 25.7C101.739 25.824 101.605 25.9978 101.53 26.1988C101.442 26.4315 101.4 26.6783 101.403 26.9267C101.384 27.2933 101.489 27.6557 101.7 27.9568C101.804 28.0868 101.938 28.1901 102.09 28.2578C102.243 28.3254 102.41 28.3555 102.576 28.3454V28.3387Z" fill="#535983"/>
<path d="M105.001 28.707V25.1584H105.436V26.0132L105.348 25.9009C105.387 25.7983 105.439 25.701 105.503 25.6111C105.562 25.5272 105.632 25.4516 105.712 25.3864C105.808 25.3045 105.918 25.2412 106.038 25.2C106.159 25.1583 106.285 25.1326 106.413 25.1236C106.527 25.1153 106.641 25.1244 106.752 25.1505V25.5999C106.613 25.5673 106.47 25.5597 106.328 25.5774C106.169 25.595 106.019 25.66 105.898 25.7639C105.785 25.8509 105.694 25.9638 105.634 26.093C105.574 26.2216 105.533 26.3582 105.513 26.4985C105.493 26.6399 105.484 26.7826 105.486 26.9254V28.6946L105.001 28.707Z" fill="#535983"/>
<path d="M110.611 28.804C110.301 28.8084 109.993 28.7488 109.707 28.6287C109.445 28.5161 109.213 28.3455 109.029 28.13C108.835 27.9013 108.689 27.6372 108.599 27.3526C108.495 27.023 108.445 26.6791 108.45 26.3338C108.441 25.8878 108.529 25.4452 108.709 25.0363C108.866 24.6833 109.125 24.3844 109.452 24.1769C109.804 23.9656 110.21 23.8592 110.621 23.8703C111.064 23.8514 111.5 23.9764 111.865 24.2264C112.183 24.4628 112.417 24.7948 112.531 25.1733L112.041 25.2935C111.945 25.0159 111.766 24.7735 111.529 24.5982C111.27 24.4176 110.958 24.3271 110.642 24.341C110.313 24.3284 109.989 24.4141 109.71 24.587C109.458 24.7595 109.264 25.0038 109.154 25.2879C108.908 25.9602 108.908 26.6972 109.154 27.3695C109.269 27.6534 109.465 27.8972 109.719 28.0704C109.996 28.2488 110.321 28.3386 110.651 28.3277C110.946 28.3384 111.239 28.2701 111.499 28.13C111.722 27.9984 111.899 27.8025 112.007 27.5683C112.13 27.2937 112.197 26.998 112.206 26.6977H111.11V26.281H112.719C112.726 26.3335 112.73 26.3864 112.73 26.4393V26.5595C112.739 26.9529 112.662 27.3434 112.504 27.7042C112.358 28.0316 112.116 28.3081 111.81 28.4984C111.456 28.7026 111.051 28.803 110.642 28.7882L110.611 28.804Z" fill="#535983"/>
<path d="M114.876 28.8051C114.559 28.8149 114.246 28.7371 113.971 28.5804C113.715 28.4255 113.509 28.2015 113.376 27.9345C113.228 27.6289 113.156 27.2926 113.166 26.9538C113.157 26.6053 113.228 26.2592 113.376 25.9428C113.505 25.6752 113.707 25.4493 113.96 25.2913C114.231 25.1353 114.54 25.0575 114.853 25.0666C115.171 25.0595 115.485 25.1433 115.757 25.3081C116.011 25.4764 116.208 25.7168 116.322 25.9979C116.46 26.3386 116.52 26.7053 116.499 27.0718H116.003V26.9022C116.019 26.5327 115.914 26.1678 115.705 25.862C115.604 25.7427 115.476 25.6488 115.331 25.5879C115.187 25.527 115.03 25.5008 114.873 25.5115C114.707 25.5016 114.541 25.5302 114.388 25.5949C114.235 25.6596 114.1 25.7587 113.992 25.8844C113.771 26.1913 113.664 26.5649 113.689 26.9415C113.663 27.3128 113.771 27.6812 113.992 27.9817C114.097 28.1054 114.23 28.2029 114.38 28.2667C114.53 28.3304 114.693 28.3586 114.856 28.349C115.091 28.3537 115.322 28.293 115.523 28.1738C115.721 28.0523 115.879 27.8752 115.975 27.6649L116.428 27.8401C116.297 28.1358 116.08 28.3858 115.805 28.558C115.525 28.7282 115.202 28.8155 114.873 28.8096L114.876 28.8051ZM113.509 26.664H116.237V27.0695H113.509V26.664Z" fill="#535983"/>
<path d="M117.129 28.705V25.1576H117.57V26.0338H117.62V28.705H117.129ZM119.713 28.705V26.8931C119.716 26.7107 119.697 26.5287 119.658 26.3505C119.624 26.1965 119.563 26.0499 119.476 25.9181C119.396 25.7958 119.286 25.696 119.156 25.6282C119.008 25.5541 118.843 25.5182 118.677 25.5238C118.521 25.5194 118.367 25.5493 118.225 25.6114C118.096 25.6679 117.982 25.7542 117.894 25.863C117.8 25.9817 117.731 26.1176 117.69 26.2629C117.642 26.4379 117.618 26.6185 117.619 26.7999L117.28 26.7235C117.271 26.4078 117.337 26.0944 117.473 25.8091C117.591 25.5748 117.775 25.3796 118.002 25.2474C118.237 25.1155 118.504 25.0491 118.774 25.0553C118.967 25.0511 119.159 25.0846 119.339 25.1542C119.493 25.2142 119.632 25.3056 119.747 25.4227C119.859 25.5337 119.951 25.6634 120.017 25.8057C120.084 25.9494 120.134 26.1002 120.167 26.2551C120.195 26.4142 120.21 26.5754 120.211 26.737V28.6871H119.72L119.713 28.705Z" fill="#535983"/>
<path d="M120.728 28.7066L122.37 23.9751H123.014L124.657 28.7066H124.149L122.589 24.2436H122.783L121.234 28.7066H120.728ZM121.46 27.107H123.913V27.5563H121.46V27.107Z" fill="#535983"/>
<path d="M125.797 23.9751H125.312V28.7066H125.797V23.9751Z" fill="#535983"/>
<path d="M127.17 8.59704C126.732 8.1771 126.205 7.8607 125.627 7.67142C124.886 7.42956 124.109 7.31558 123.329 7.33442C122.485 7.31043 121.642 7.43674 120.842 7.70736C120.257 7.91486 119.728 8.25615 119.3 8.70376C118.928 9.10422 118.656 9.58658 118.508 10.1113C118.36 10.6279 118.284 11.1624 118.282 11.6997V16.9996C118.285 17.2589 118.39 17.5068 118.574 17.6901C118.759 17.8734 119.008 17.9776 119.269 17.9802H119.382C119.509 17.9787 119.634 17.9523 119.75 17.9026C119.867 17.8528 119.972 17.7807 120.06 17.6904C120.155 17.6024 120.231 17.4955 120.282 17.3768C120.333 17.258 120.359 17.1299 120.358 17.0007V11.7019C120.36 11.4233 120.382 11.1451 120.424 10.8695C120.466 10.5956 120.589 10.3402 120.777 10.136C121.019 9.88946 121.321 9.7085 121.653 9.61029C122.182 9.45555 122.733 9.38726 123.284 9.40809C123.808 9.3916 124.332 9.45255 124.838 9.58895C125.166 9.68366 125.466 9.85464 125.714 10.0877C125.913 10.2903 126.051 10.5446 126.111 10.8212C126.169 11.1117 126.199 11.407 126.199 11.7031V16.9996C126.197 17.1284 126.221 17.2563 126.272 17.3751C126.322 17.4939 126.397 17.6009 126.491 17.6893C126.581 17.7821 126.688 17.8557 126.808 17.9055C126.927 17.9553 127.055 17.9804 127.185 17.9791H127.298C127.427 17.9811 127.554 17.9573 127.673 17.9092C127.793 17.8612 127.901 17.7898 127.992 17.6994C128.09 17.6106 128.167 17.5024 128.22 17.3819C128.273 17.2613 128.3 17.1311 128.299 16.9996V11.7019C128.305 11.1178 128.214 10.5367 128.029 9.98211C127.853 9.45686 127.555 8.98033 127.159 8.59143H127.142L127.17 8.59704Z" fill="black"/>
<path d="M116.043 13.1487C116.239 12.9809 116.395 12.772 116.5 12.5372C116.604 12.3023 116.655 12.0473 116.649 11.7905C116.659 11.1475 116.533 10.5097 116.28 9.91795C116.047 9.38084 115.694 8.90336 115.249 8.52164C114.778 8.12579 114.233 7.82783 113.645 7.64545C112.971 7.43463 112.268 7.33112 111.561 7.33877C110.8 7.33532 110.043 7.45171 109.319 7.68364C108.651 7.90002 108.031 8.24339 107.494 8.69464C106.966 9.15584 106.545 9.72583 106.26 10.365C105.951 11.0923 105.798 11.8761 105.814 12.6656C105.798 13.4551 105.95 14.2391 106.26 14.9662C106.539 15.6088 106.961 16.1799 107.494 16.6366C108.029 17.0903 108.649 17.4339 109.319 17.6476C110.043 17.8816 110.8 17.998 111.561 17.9925C112.012 17.9804 112.461 17.9384 112.907 17.8667C113.478 17.7852 114.042 17.6571 114.593 17.4836C115.103 17.3314 115.589 17.1082 116.036 16.8208C116.214 16.7243 116.364 16.5839 116.471 16.4131C116.578 16.2423 116.639 16.0469 116.648 15.8458C116.653 15.7161 116.628 15.5871 116.577 15.4678C116.526 15.3486 116.448 15.2421 116.351 15.1561C116.148 14.9809 115.886 14.8889 115.618 14.8988C115.44 14.8996 115.266 14.951 115.116 15.0471C114.929 15.1594 114.697 15.283 114.438 15.4144C113.856 15.6919 113.241 15.8961 112.608 16.0221C112.273 16.0896 111.933 16.1246 111.591 16.1266C110.759 16.1434 109.94 15.9211 109.232 15.4863C108.572 15.0704 108.097 14.4199 107.904 13.6676H114.608C115.137 13.6791 115.652 13.4936 116.051 13.1475L116.043 13.1487ZM114.401 11.676C114.356 11.7853 114.241 11.84 114.054 11.84H107.915C108.009 11.4524 108.173 11.085 108.4 10.756C108.624 10.4295 108.904 10.1441 109.226 9.91233C109.556 9.67323 109.925 9.49166 110.317 9.37538C110.731 9.25103 111.162 9.18819 111.595 9.1889C111.917 9.19322 112.238 9.22821 112.554 9.29338C112.879 9.35776 113.192 9.47423 113.48 9.63824C113.757 9.79467 113.994 10.0122 114.174 10.274C114.363 10.5561 114.465 10.8875 114.465 11.2266C114.468 11.3772 114.446 11.5272 114.399 11.6703L114.401 11.676Z" fill="black"/>
<path d="M139.53 12.4086C138.698 11.8904 137.734 11.6224 136.752 11.6368L134.124 11.5436C133.932 11.543 133.74 11.5246 133.551 11.4885C133.349 11.4514 133.153 11.3887 132.967 11.3021C132.794 11.2208 132.637 11.1093 132.503 10.9729C132.441 10.9072 132.392 10.8298 132.36 10.7451C132.328 10.6605 132.313 10.5703 132.316 10.4798C132.314 10.3747 132.333 10.2703 132.371 10.1725C132.41 10.0747 132.468 9.98561 132.542 9.91027C132.705 9.74594 132.9 9.61571 133.115 9.52721C133.363 9.42003 133.624 9.34454 133.892 9.30254C134.164 9.26384 134.44 9.24581 134.716 9.24862C135.364 9.23338 136.01 9.30902 136.637 9.47329C137.092 9.60398 137.538 9.76498 137.971 9.9552C138.07 10.0046 138.17 10.0541 138.263 10.0979C138.359 10.1423 138.465 10.165 138.571 10.1641C138.824 10.1604 139.069 10.0717 139.265 9.91251C139.37 9.82908 139.454 9.72207 139.51 9.60023C139.566 9.47839 139.591 9.3452 139.585 9.21155C139.578 9.06472 139.538 8.92129 139.469 8.79156C139.399 8.66183 139.301 8.549 139.183 8.46117C138.866 8.20998 138.511 8.01191 138.13 7.87479C137.657 7.69853 137.168 7.56836 136.67 7.48611C136.133 7.39246 135.589 7.34473 135.045 7.34345C134.277 7.32573 133.51 7.41805 132.769 7.61754C132.24 7.75694 131.744 7.99898 131.309 8.32974C130.967 8.58666 130.699 8.92833 130.532 9.32052C130.385 9.67134 130.309 10.0471 130.306 10.427C130.304 10.811 130.381 11.1913 130.532 11.5447C130.686 11.8981 130.918 12.2126 131.21 12.4647C131.551 12.7515 131.941 12.9741 132.362 13.1219C132.882 13.297 133.427 13.3895 133.976 13.396L137.001 13.4892C137.176 13.4937 137.349 13.516 137.519 13.5555C137.694 13.5955 137.862 13.6638 138.015 13.7577C138.163 13.8479 138.291 13.9671 138.39 14.1082C138.492 14.2604 138.544 14.44 138.54 14.6227C138.544 14.7525 138.521 14.8819 138.473 15.0025C138.425 15.1232 138.351 15.2326 138.258 15.3236C138.055 15.5148 137.815 15.6637 137.553 15.7617C137.262 15.8756 136.958 15.9548 136.649 15.9976C136.365 16.0388 136.08 16.061 135.794 16.0639C135.568 16.0639 135.298 16.0527 134.968 16.0257C134.607 15.9923 134.248 15.9394 133.893 15.8673C133.475 15.7783 133.063 15.6658 132.658 15.5303C132.216 15.3796 131.788 15.189 131.38 14.9608C131.236 14.8858 131.075 14.8472 130.912 14.8484C130.737 14.8526 130.565 14.8976 130.41 14.9799C130.266 15.0473 130.144 15.1535 130.057 15.2865C129.949 15.4625 129.897 15.667 129.908 15.8729C129.918 16.053 129.971 16.2283 130.062 16.3844C130.153 16.5405 130.279 16.6732 130.432 16.7716C130.847 17.0695 131.308 17.2972 131.798 17.4456C132.416 17.6385 133.051 17.7761 133.694 17.8567C134.391 17.9505 135.094 17.9982 135.798 17.9994C136.527 18.0118 137.254 17.9253 137.959 17.7421C138.494 17.6012 138.997 17.3595 139.44 17.03C139.807 16.7558 140.1 16.3967 140.295 15.9841C140.478 15.5854 140.572 15.152 140.571 14.7136C140.609 14.2748 140.534 13.8336 140.354 13.4312C140.174 13.0288 139.894 12.6785 139.54 12.4131H139.529L139.53 12.4086Z" fill="black"/>
<path d="M156.713 7.66788H156.563C156.31 7.66659 156.066 7.76513 155.885 7.94198C155.794 8.02906 155.722 8.13386 155.674 8.24983C155.625 8.36579 155.601 8.49044 155.604 8.61598V16.9343C155.603 17.0596 155.627 17.1839 155.676 17.2997C155.724 17.4154 155.795 17.5204 155.885 17.6083C155.973 17.6985 156.078 17.7699 156.195 17.818C156.312 17.8661 156.437 17.8899 156.563 17.888H156.713C156.965 17.8828 157.206 17.7808 157.385 17.6032C157.563 17.4257 157.666 17.1864 157.671 16.9354V8.61935C157.672 8.49399 157.648 8.36974 157.599 8.25396C157.551 8.13818 157.48 8.03323 157.39 7.94535C157.302 7.85511 157.196 7.78373 157.08 7.73562C156.963 7.68751 156.838 7.66369 156.711 7.66564" fill="black"/>
<path d="M156.634 3.554C156.482 3.55001 156.331 3.57796 156.191 3.63603C156.05 3.69411 155.924 3.78099 155.819 3.891C155.611 4.10335 155.494 4.38838 155.494 4.6852C155.492 4.83334 155.52 4.98038 155.575 5.11772C155.631 5.25506 155.714 5.37993 155.819 5.48501C155.922 5.59779 156.048 5.68705 156.189 5.7466C156.329 5.80615 156.481 5.83457 156.634 5.82988C156.783 5.83084 156.93 5.80221 157.067 5.74568C157.205 5.68915 157.329 5.60587 157.433 5.50074C157.647 5.28396 157.768 4.99317 157.77 4.68972C157.772 4.38626 157.655 4.09385 157.445 3.87415C157.338 3.76819 157.21 3.68489 157.07 3.62928C156.93 3.57367 156.78 3.54692 156.629 3.55063L156.634 3.554Z" fill="black"/>
<path d="M104.218 15.9411H102.933C102.655 15.9385 102.377 15.9164 102.101 15.8749C101.826 15.8337 101.569 15.7117 101.363 15.5244C101.095 15.2504 100.893 14.9187 100.773 14.5549C100.644 14.0619 100.597 13.551 100.635 13.0429L100.624 12.4408V9.70327H103.111C103.24 9.70467 103.368 9.6791 103.487 9.6282C103.605 9.57731 103.712 9.50223 103.799 9.40783C103.89 9.32035 103.962 9.2156 104.012 9.09981C104.061 8.98402 104.086 8.85957 104.086 8.73383V8.6215C104.086 8.36466 103.982 8.1186 103.8 7.93698C103.617 7.75537 103.369 7.65295 103.111 7.65206H100.624V4.54492C100.629 4.41278 100.605 4.28116 100.554 4.15917C100.502 4.03717 100.425 3.92771 100.327 3.83835C100.144 3.66469 99.9012 3.5684 99.6486 3.56987H99.4553C99.2026 3.56744 98.959 3.66387 98.7771 3.83835C98.6291 3.96588 98.5251 4.13642 98.4798 4.32587V12.9755C98.4383 13.8585 98.5657 14.7413 98.8551 15.5772C99.057 16.1294 99.3897 16.6253 99.825 17.0229C100.268 17.3929 100.79 17.6587 101.351 17.8003C101.869 17.9481 102.405 18.0237 102.944 18.0249H104.232C104.491 18.024 104.738 17.9216 104.921 17.74C105.104 17.5584 105.207 17.3123 105.208 17.0555V16.9432C105.202 16.6878 105.097 16.4446 104.916 16.264C104.734 16.0834 104.489 15.9794 104.232 15.9737V15.9569L104.218 15.9411Z" fill="black"/>
<path d="M152.011 8.89722C151.489 8.38439 150.866 7.98369 150.181 7.71996C148.487 7.13566 146.645 7.13566 144.951 7.71996C144.265 7.98547 143.641 8.39024 143.121 8.90845C142.638 9.39263 142.271 9.97846 142.046 10.6227C141.81 11.2777 141.692 11.9691 141.699 12.6649C141.694 13.3605 141.817 14.0512 142.063 14.7026C142.296 15.3444 142.662 15.9304 143.138 16.4224C143.657 16.9424 144.28 17.3474 144.968 17.6109C145.795 17.9334 146.68 18.0844 147.568 18.0546C148.331 18.0434 149.086 17.893 149.795 17.6109C149.924 17.5537 150.039 17.4697 150.133 17.3645C150.227 17.2593 150.297 17.1353 150.339 17.001C150.381 16.8666 150.393 16.7249 150.375 16.5854C150.357 16.4459 150.31 16.3118 150.235 16.1921C149.982 15.6664 149.371 15.7215 148.968 15.8417C148.513 15.9842 148.044 16.0761 147.569 16.1158C146.997 16.1563 146.424 16.0584 145.899 15.8304C145.46 15.664 145.063 15.404 144.736 15.0688C144.431 14.7546 144.196 14.3793 144.048 13.9679C143.898 13.5515 143.822 13.1127 143.822 12.6705C143.819 12.2263 143.896 11.7852 144.048 11.3674C144.192 10.9565 144.423 10.5812 144.726 10.2666C145.055 9.93432 145.451 9.67644 145.889 9.51056C146.424 9.31135 146.993 9.21455 147.564 9.22523C148.136 9.21182 148.705 9.30872 149.24 9.51056C149.679 9.6744 150.076 9.93255 150.403 10.2666C150.702 10.5794 150.933 10.9504 151.081 11.3562C151.232 11.78 151.309 12.2265 151.307 12.6761V17.056C151.307 17.3188 151.412 17.5708 151.599 17.7566C151.786 17.9424 152.04 18.0468 152.304 18.0468H152.417C152.549 18.048 152.679 18.023 152.801 17.9733C152.923 17.9236 153.034 17.8501 153.127 17.7573C153.22 17.6644 153.293 17.5541 153.342 17.4327C153.392 17.3113 153.416 17.1813 153.414 17.0504V12.5627C153.403 11.9003 153.286 11.244 153.067 10.6182C152.839 9.97669 152.475 9.39186 151.998 8.90396L152.011 8.89722Z" fill="black"/>
<path d="M163.931 7.80804C163.923 8.24069 163.787 8.66147 163.54 9.01756C163.292 9.37365 162.945 9.64918 162.54 9.80955C162.136 9.96993 161.693 10.008 161.267 9.91901C160.84 9.83001 160.45 9.61789 160.145 9.30929C159.84 9.00069 159.633 8.60936 159.551 8.18443C159.469 7.7595 159.515 7.31991 159.683 6.92085C159.851 6.52178 160.135 6.18102 160.497 5.94136C160.86 5.70169 161.285 5.5738 161.721 5.57373C162.312 5.57937 162.876 5.81779 163.291 6.23668C163.705 6.65557 163.935 7.2207 163.931 7.80804ZM159.93 7.80804C159.944 8.15787 160.06 8.49608 160.266 8.78052C160.471 9.06496 160.756 9.28307 161.085 9.40768C161.414 9.53228 161.773 9.55786 162.117 9.48124C162.461 9.40462 162.774 9.22919 163.018 8.97679C163.262 8.7244 163.426 8.4062 163.49 8.06184C163.553 7.71748 163.513 7.36219 163.375 7.04022C163.237 6.71826 163.006 6.44386 162.712 6.2512C162.418 6.05855 162.073 5.95616 161.721 5.95679C161.237 5.96799 160.777 6.16891 160.442 6.51572C160.106 6.86252 159.922 7.32708 159.93 7.80804ZM162.614 7.33736C162.615 7.51483 162.55 7.68645 162.432 7.81976C162.314 7.95306 162.151 8.03881 161.974 8.06079L162.652 8.9808H162.313L161.646 8.07202H161.194V8.9808H160.91V6.57687H161.721C161.831 6.56206 161.943 6.57035 162.05 6.60118C162.157 6.63202 162.256 6.68472 162.341 6.75592C162.426 6.82711 162.496 6.91522 162.545 7.01458C162.593 7.11394 162.621 7.22236 162.625 7.33287L162.614 7.33736ZM161.203 6.86107V7.80355H161.726C162.096 7.80355 162.305 7.64516 162.305 7.33849C162.305 7.03182 162.096 6.86219 161.726 6.86219L161.203 6.86107Z" fill="black"/>
</g>
</svg>
